<?xml version="1.0" encoding="utf-8"?>
<!-- Generator: Adobe Illustrator 24.0.3, SVG Export Plug-In . SVG Version: 6.00 Build 0)  -->
<svg version="1.1" id="圖層_1" xmlns="http://www.w3.org/2000/svg" xmlns:xlink="http://www.w3.org/1999/xlink" x="0px" y="0px"
	 viewBox="0 0 30.07 30.8" style="enable-background:new 0 0 30.07 30.8;" xml:space="preserve">
<style type="text/css">
	.st0{clip-path:url(#SVGID_2_);fill:#FFB900;}
	.st1{clip-path:url(#SVGID_2_);}
	.st2{fill:#FF921B;}
</style>
<g>
	<defs>
		<rect id="SVGID_1_" width="30.07" height="30.8"/>
	</defs>
	<clipPath id="SVGID_2_">
		<use xlink:href="#SVGID_1_"  style="overflow:visible;"/>
	</clipPath>
	<path class="st0" d="M29.82-0.68c0-10.57-8.57-19.14-19.14-19.14c-10.57,0-19.14,8.57-19.14,19.14c0,4.22,1.38,8.11,3.69,11.27
		c-2.38,1.96-3.9,4.93-3.9,8.26c0,5.9,4.79,10.69,10.69,10.69s10.69-4.79,10.69-10.69c0-0.17-0.02-0.33-0.03-0.5
		C22.32,17.34,29.82,9.21,29.82-0.68z"/>
	<g class="st1">
		<g>
			<g>
				<g>
					<g>
						<polygon class="st2" points="29.06,0.96 29.05,0.9 29.02,1.41 						"/>
						<path class="st2" d="M28.46,4.15c0.13-0.28,0.28-1.14,0.4-1.71l0.03-0.09l-0.02-0.27C28.82,2.79,28.58,3.67,28.46,4.15z"/>
						<path class="st2" d="M27.78,5.75c0.06-0.09-0.1,0.36,0.14-0.38c-0.01,0.03-0.02,0.05-0.03,0.07
							C27.87,5.5,27.84,5.59,27.78,5.75z"/>
						<path class="st2" d="M27.89,5.44C28,5.11,27.8,5.64,27.89,5.44L27.89,5.44z"/>
						<path class="st2" d="M27.31,6.89l0.16-0.42c-0.05,0.08-0.22,0.44-0.17,0.3C27.13,7.2,27.18,7.12,27.31,6.89z"/>
						<path class="st2" d="M27.19,7.3l0.08-0.22C27.25,7.12,27.22,7.18,27.19,7.3z"/>
						<path class="st2" d="M27.45,6.63l-0.18,0.46c0.04-0.05,0.06-0.05,0.08-0.21C27.36,6.92,27.38,6.82,27.45,6.63z"/>
						<path class="st2" d="M27.58,6.38c0.12-0.22,0.26-0.52,0.1-0.1c0.18-0.39,0.2-0.58,0.18-0.55C27.84,5.75,27.76,5.99,27.58,6.38
							z"/>
						<path class="st2" d="M28.5,4.34l0.1-0.32l0.04-0.29C28.62,3.86,28.47,4.35,28.5,4.34z"/>
						<path class="st2" d="M25.95,9.32c0,0.03,0.12-0.1,0.15-0.12c0.06-0.1,0.12-0.19,0.16-0.29C26.18,9.05,25.98,9.31,25.95,9.32z"
							/>
						<path class="st2" d="M26.11,9.2l-0.26,0.42C26.1,9.26,26.14,9.18,26.11,9.2z"/>
						<polygon class="st2" points="27.23,7.41 27.51,6.64 27.17,7.56 						"/>
						<polygon class="st2" points="24.85,10.84 25,10.6 24.72,11.02 						"/>
						<path class="st2" d="M24.05,11.8c0.12-0.17-0.23,0.17-0.1,0c-0.23,0.24-0.42,0.47-0.58,0.67
							C23.55,12.27,23.76,12.06,24.05,11.8z"/>
						<path class="st2" d="M23.08,12.81c0.08-0.1,0.18-0.21,0.28-0.34C23.27,12.59,23.17,12.7,23.08,12.81z"/>
						<path class="st2" d="M25.37,10.32c-0.03,0.03-0.09,0.08-0.27,0.28l0.16-0.12C25.29,10.43,25.33,10.37,25.37,10.32z"/>
						<path class="st2" d="M25.26,10.47L25.26,10.47c-0.14,0.17-0.23,0.28-0.27,0.33C25.02,10.76,25.1,10.66,25.26,10.47z"/>
						<path class="st2" d="M25.4,10.28l-0.03,0.04C25.38,10.3,25.39,10.29,25.4,10.28z"/>
						<path class="st2" d="M26.57,8.54c-0.12,0.27-0.4,0.81-0.08,0.32C26.57,8.66,26.39,8.94,26.57,8.54z"/>
						<path class="st2" d="M25.57,10.11l0.31-0.43c-0.02,0-0.08,0.07-0.01-0.05L25.57,10.11z"/>
						<polygon class="st2" points="25.44,10.33 25.57,10.11 25.46,10.27 						"/>
						<path class="st2" d="M23.74,12.2c-0.15,0.18-0.32,0.35-0.51,0.56c0.22-0.22,0.44-0.43,0.65-0.64
							C23.89,12.08,23.97,11.97,23.74,12.2z"/>
						<path class="st2" d="M24.5,11.38l-0.03,0.04C24.5,11.4,24.51,11.38,24.5,11.38z"/>
						<polygon class="st2" points="21.09,14.51 21.13,14.49 21.14,14.48 						"/>
						<path class="st2" d="M23.91,12.08c0.16-0.16,0.25-0.26,0.33-0.36c-0.12,0.13-0.24,0.25-0.37,0.39
							C23.86,12.13,23.86,12.14,23.91,12.08z"/>
						<path class="st2" d="M22.52,13.33c0.1-0.08,0.21-0.16,0.31-0.24C22.73,13.16,22.54,13.3,22.52,13.33z"/>
						<path class="st2" d="M24.42,11.47l0.02-0.03C24.38,11.5,24.39,11.49,24.42,11.47z"/>
						<path class="st2" d="M24.42,11.47l-0.17,0.25c0.08-0.11,0.16-0.21,0.23-0.3C24.46,11.44,24.43,11.46,24.42,11.47z"/>
						<path class="st2" d="M20.56,15.22c0.01-0.06,0.48-0.43,0.93-0.7c0.4-0.32,0.05-0.23-0.36-0.03c0,0.02,0.01,0.04-0.41,0.36
							c0.16-0.09,0.98-0.63,0.64-0.34c-0.56,0.42-0.47,0.32-0.76,0.49c0.28-0.1-0.71,0.54-0.55,0.51c0.17-0.11,0.35-0.21,0.51-0.34
							C20.58,15.17,20.41,15.31,20.56,15.22z"/>
						<path class="st2" d="M21.93,13.9l0.16-0.14c-0.19,0.15-0.33,0.26-0.61,0.42c-0.28,0.22-0.33,0.28-0.34,0.3
							c0.28-0.21,0.59-0.39,0.85-0.63L21.93,13.9z"/>
						<path class="st2" d="M22.82,13.14c-0.1,0.14-0.48,0.49-0.21,0.32c0.48-0.42,0.32-0.3,0.58-0.58
							C22.45,13.56,23.41,12.67,22.82,13.14c0.16-0.13,0.29-0.26,0.4-0.38c-0.13,0.13-0.26,0.25-0.4,0.34l0.02-0.01l0,0l0,0
							c0.04-0.02,0.05-0.03,0.01,0l-0.02,0.01C22.85,13.1,22.84,13.12,22.82,13.14c-0.23,0.18-0.04,0.02,0.02-0.04l0.01-0.01l0,0
							l-0.76,0.68C22.26,13.62,22.46,13.45,22.82,13.14z"/>
						<path class="st2" d="M26.29,9.37c-0.02,0.02-0.03,0.02-0.03,0.02C26.23,9.45,26.22,9.47,26.29,9.37z"/>
						<path class="st2" d="M26.03,9.71c0.04-0.07,0.06-0.13,0.2-0.32c0.13-0.17,0.02,0.01,0.03,0.01c0.07-0.13,0.26-0.44-0.01-0.07
							l-0.04,0.06c-0.24,0.33-0.59,0.74-0.55,0.68C25.76,9.98,25.84,9.91,26.03,9.71z"/>
						<path class="st2" d="M24.52,11.56c-0.17,0.23-0.36,0.43-0.56,0.64l0.33-0.28l-0.03,0C24.59,11.56,24.49,11.61,24.52,11.56z"/>
						<polygon class="st2" points="21,14.55 21.07,14.45 20.7,14.78 						"/>
						<polygon class="st2" points="20.09,15.17 20.11,15.11 19.87,15.28 						"/>
						<path class="st2" d="M1.19,29.58c-0.34-0.13-0.71-0.28-0.68-0.23l0.09,0.07C0.85,29.47,1.03,29.53,1.19,29.58z"/>
						<path class="st2" d="M13.4,22.38c-0.1,0.29-0.21,0.51-0.28,0.72C13.27,22.76,13.42,22.49,13.4,22.38z"/>
						<path class="st2" d="M12.76,23.91c0.03-0.05,0.05-0.09,0.08-0.14c0.1-0.2,0.18-0.41,0.27-0.67
							C13.02,23.35,12.87,23.63,12.76,23.91z"/>
						<path class="st2" d="M16.09,17.01C16.31,16.93,16.12,16.99,16.09,17.01L16.09,17.01z"/>
						<path class="st2" d="M17.22,16.79c-0.05,0.02-0.08,0.04-0.08,0.05C17.15,16.82,17.18,16.81,17.22,16.79z"/>
						<path class="st2" d="M11.76,26.02l-0.01,0.02C11.8,25.98,11.79,25.99,11.76,26.02z"/>
						<path class="st2" d="M16.43,16.91c-0.09,0.03-0.18,0.06-0.29,0.09C16.19,16.98,16.28,16.95,16.43,16.91z"/>
						<path class="st2" d="M16.38,16.91c0.08-0.03,0.14-0.04,0.19-0.06C16.59,16.83,16.57,16.83,16.38,16.91z"/>
						<path class="st2" d="M15.79,17.12c0.13-0.04,0.24-0.08,0.36-0.12c-0.04,0.01-0.06,0.02-0.05,0.01
							C16.03,17.03,15.94,17.06,15.79,17.12z"/>
						<path class="st2" d="M-8.96-3.94L-9.1-3.35c0.05-0.73,0.16-1.25,0.01-0.7C-9.02-4-9.13-3.42-9.18-2.83
							c-0.03,0.59-0.06,1.17,0.01,1.22l-0.05,0.4c0-0.11,0-0.14,0.01-0.24c-0.12,0.77,0.1,0.58,0.11,1.57c0,0.35,0,0.59-0.03,0.35
							c0.02,0.26,0.04,0.51,0.09,0.77c0.02,0.22-0.01,0.17-0.03-0.05c0.04,0.39,0.1,0.78,0.17,1.17l-0.01-0.01
							c0.06,0.19,0.16,0.54,0.2,0.71c0.04,0.3-0.04-0.14-0.05-0.07C-8.72,3.19-8.66,3.4-8.59,3.6c0.03,0.27-0.14-0.25-0.22-0.69
							C-8.82,3.54-8.69,3.44-8.4,4.72l-0.19-0.59C-8.56,4.54-8.4,5-8.21,5.68c-0.04-0.17-0.32-1.37-0.07-0.7
							C-8.23,5.16-8.16,5.42-8,5.77c-0.04,0.02,0.09,0.37,0.28,0.8l-0.07,0c0.21,0.46,0.23,0.41,0.38,0.67
							C-7.18,7.74-7.16,7.86-7.14,8c0.41,0.81-0.22-0.59,0.29,0.35c0.34,0.67,0.64,1.11,1.18,1.82c0.29,0.44-0.09-0.05,0.01,0.11
							l0.32,0.35c0.07,0.09,0.03,0.07,0.01,0.06c0.25,0.3,0.07-0.01,0.46,0.46c0.05,0.02,0.12,0.12,0.22,0.26
							c0.05,0.06,0.11,0.14,0.17,0.22c0.03,0.05,0.07,0.1,0.11,0.16c-0.11,0.08-0.44,0.42-0.61,0.68c-0.14,0.13,0.03-0.09-0.03-0.07
							c-0.61,0.86-0.53,0.74-0.92,1.5c-0.14,0.2-0.26,0.41-0.39,0.62c0.3-0.45,0.01,0.18-0.17,0.74c0.09-0.17,0.18-0.3,0.23-0.4
							c-0.13,0.29-0.23,0.59-0.33,0.88c-0.05,0.1-0.04,0.01-0.01-0.15c-0.02,0.06-0.03,0.12-0.04,0.17
							c-0.13,0.31-0.11,0.14-0.06-0.11c0.05-0.1,0.11-0.2,0.16-0.3c0.05-0.23,0.1-0.45,0.05-0.42c-0.03,0.08-0.07,0.18-0.11,0.3
							c0.01-0.06,0.02-0.1,0-0.08c-0.02,0.03-0.04,0.13-0.09,0.28l-0.15,0.18l0.01,0.06c-0.15,0.39-0.29,0.79-0.4,1.2
							c-0.12,0.9-0.16,1.69-0.06,3.1c-0.08-0.35-0.09-0.07-0.15-0.09c0.05-0.39-0.06-1.11,0.05-1.85c-0.05,0.38-0.07,0.3-0.07,0.2
							c-0.03,0.44-0.02,0.89,0,1.33c-0.05-0.03-0.04,0.28-0.03,0.63c0.07-0.27,0.16,0.98,0.32,1.49c-0.02,0.04-0.11-0.07-0.19-0.73
							c0.01,0.74,0.3,0.89,0.4,1.59c-0.04-0.15-0.06-0.24-0.09-0.3c0.1,0.36,0.43,1.21,0.31,1.03l-0.05-0.15
							c0.08,0.25,0.2,0.57,0.37,0.88c0.14,0.33,0.32,0.66,0.52,0.95c0.35,0.61,0.77,1.02,0.83,1.07c0,0.02-0.16-0.05-0.22-0.09
							c0.22,0.23,0.46,0.44,0.71,0.64c0.24,0.2,0.49,0.4,0.76,0.56c-0.17-0.06,0.18,0.5-0.5-0.06c0.18,0.18,0.4,0.41,0.82,0.74
							c-0.13-0.11-0.25-0.37-0.08-0.21c0.45,0.46,0.32,0.31,0.93,0.84c-0.21-0.15,0.1-0.09,0.44,0.12
							c-0.06-0.02-0.03,0.11-0.16,0.05c0.31,0.15,0.61,0.3,0.94,0.4c-0.24-0.09-0.08,0.07,0.11,0.19c-0.04-0.03,0.16,0.06,0.4,0.18
							c0.25,0.1,0.55,0.21,0.67,0.25l-0.4-0.17c0.54,0.21,0.82,0.28,1.1,0.3c0.29,0.02,0.56,0.09,1.11,0.17
							c-0.14,0-0.36,0.09,0.21,0.19c0.14-0.01,0.43-0.02,0.82-0.08c0.39-0.03,0.86-0.09,1.34-0.15l0.19,0.02
							c0.25-0.01,0.5-0.08,0.74-0.12c-0.44,0.2-1.77,0.41-2.53,0.41c0.43,0.05,0.12,0.05,0.77,0.08c0.23,0.04-0.36,0.03-0.55,0.02
							c0.5,0.05,1.01,0.05,1.52,0.02c-0.07-0.03,1.14-0.19,1.08-0.25l-0.8,0.15L3.56,30.3c-0.06-0.07,0.94-0.2,1.97-0.39
							c0.27-0.03-0.17,0.16-0.15,0.17c0.14-0.03,0.97-0.28,1.07-0.28l-0.43,0.15c0.59-0.1,0.9-0.36,1.59-0.54
							c0.22-0.1,0.7-0.24,0.72-0.29c-0.4,0.11-0.56-0.08-0.35-0.24c0.09,0,1.14-0.53,1.39-0.66c0.37-0.17-0.42,0.45-0.11,0.3
							c0-0.02,0.18-0.15,0.25-0.22c0.22-0.14-0.05,0.11,0.39-0.23c0.04-0.1,0.9-0.7,0.18-0.2c0.42-0.35,0.45-0.37,0.93-0.8
							c-0.17,0.12,0.29-0.52,0.62-0.94c-0.01,0.04,0.08-0.05,0.13-0.09c0.34-0.44,0.6-0.78,0.81-1.14c0.24-0.34,0.41-0.72,0.64-1.18
							c0.07-0.07,0.25-0.54,0.21-0.33c0.04-0.15,0.07-0.28,0.18-0.58c0.27-0.57-0.24,0.68-0.01,0.25c-0.01-0.03,0.05-0.22,0.12-0.48
							c0.06-0.26,0.12-0.55,0.17-0.78c-0.09,0.12-0.27,1.02-0.43,1.45c-0.08-0.03,0.14-0.79,0.32-1.85c0.11-0.84,0.11-0.36,0.12-0.5
							c0.18-1.59-0.02-1.35-0.04-2.68c-0.05-0.7,0.11,0,0.12-0.16c0.11,0.71,0.05,1.08,0.05,1.55c0.03-0.19,0.01-0.39,0.01-0.58
							c0.04,0.22,0.05,0.69,0.01,0.94c0.05-0.22,0.06-0.9,0-1.68c-0.24-0.51,0.34-0.46,0.7-0.58c0.38-0.09,0.74-0.18,1.05-0.25
							c0.2-0.09,0.56-0.24,0.38-0.2l-0.37,0.14c-0.35,0.08,0.68-0.3,0.2-0.16c0.48-0.22,1.04-0.41,1.71-0.7l0.15,0
							c-0.02-0.01-0.45,0.18-0.64,0.26c0.28-0.13,1.07-0.39,1.34-0.6l-0.49,0.18c0.22-0.12,0.5-0.27,0.76-0.41
							c0.26-0.16,0.54-0.34,0.82-0.49c-0.29,0.1-0.13,0.08-0.56,0.25c0.41-0.08-1.49,0.73-0.87,0.53c-0.47,0.11-0.75,0.35-1.36,0.47
							c0.03,0.01,0.22-0.04-0.3,0.14c-0.03,0.02-0.08,0.04-0.11,0.06c-0.02,0-0.02,0.01-0.04,0.01l0.03-0.01
							c-0.02,0.01-0.02,0.01,0.01,0c0.13-0.03,0.23-0.06,0.27-0.06c-0.24,0.12-1.05,0.45-1.34,0.52c-0.32,0.07,0.13-0.06-0.05-0.03
							l-0.42,0.14c-0.05-0.03-0.85,0.14-0.12-0.07l-0.74,0.18l-0.27,0.06l-0.14,0.03l0.02,0.14c0.02,0.18,0.05,0.35,0.07,0.53
							c0.02,0.23,0.03,0.43,0.04,0.62c0.02,0.32,0.06,0.81,0.04,0.53l-0.04,1.06l-0.01,0.01c-0.13,1.04-0.34,2.16-0.92,3.22
							c-0.14,0.32-0.28,0.66-0.62,1.16L12.14,25c-0.23,0.39-0.82,1.08-0.94,1.24c-0.36,0.33-1.58,1.52-2.29,1.9l0,0.06
							c-0.46,0.3-0.93,0.54-1.54,0.84l0.06,0.03c-0.27,0.11-0.63,0.25-1.04,0.36c-0.42,0.08-0.86,0.22-1.33,0.27
							c0.06-0.03,0.3-0.05,0.46-0.08c-1.1,0.12-2.34,0.33-3.35,0.15c-0.25-0.02-0.43-0.06-0.6-0.1l0.06,0.01
							c-0.03,0-0.06-0.01-0.1-0.02c-0.11-0.03-0.22-0.05-0.34-0.08c0.1,0.04,0.2,0.05,0.28,0.07c-0.19-0.02-0.48-0.09-0.76-0.16
							l-0.11-0.08c-0.02-0.01-0.04-0.01-0.06-0.02c-0.27-0.09-0.23-0.04-0.09,0.04c-0.14-0.03-0.28-0.06-0.37-0.08
							c-0.19-0.16-0.73-0.22-0.98-0.45c-0.1-0.03-0.43-0.17-0.76-0.32c-0.31-0.18-0.63-0.34-0.72-0.35c0-0.01-0.07-0.06,0.06,0.02
							c-0.28-0.16-0.52-0.39-0.77-0.54l-0.07-0.13c-0.21-0.11-0.39-0.27-0.59-0.4c-0.29-0.32-0.41-0.45-0.06-0.2
							c-0.41-0.31-0.53-0.49-0.67-0.62c-0.13-0.14-0.26-0.25-0.55-0.59l0.06,0.01c-0.19-0.25-0.53-0.62-0.59-0.81
							c-0.15-0.32-0.61-1.06-0.93-2.01c-0.19-0.47-0.3-0.99-0.43-1.5c-0.07-0.52-0.16-1.02-0.16-1.47c-0.11,0.35,0.01-0.83-0.06-0.9
							c0.03-0.1,0.06-0.35,0.07-0.06c0.01-0.91,0.16-1.36,0.22-1.99c0.05-0.1,0,0.2,0.03,0.11c0.01-0.07,0.04-0.29,0.08-0.38
							c0.04-0.09-0.01,0.13-0.03,0.28c0.21-0.9,0.2-1.01,0.14-1.1c0.19-0.44,0.28-0.66,0.37-0.99c0.09-0.14,0.24-0.38,0,0.15
							c0.07-0.15,0.29-0.6,0.52-1c0.23-0.4,0.47-0.75,0.46-0.79c0.07-0.08,0.27-0.37,0.32-0.44c0.2-0.26,0.34-0.4,0.45-0.54
							c0.15-0.16,0.29-0.31,0.53-0.56c-0.02-0.02-0.08-0.1-0.16-0.19l0.15,0.18L-4,11.82l0.01-0.02c-0.33-0.29-0.47-0.51-0.83-0.97
							l0.02,0.01c-0.76-1.11-0.39-0.44-1.07-1.58l0,0.09c-0.15-0.05-0.58-1.03-0.95-1.7l0.1,0.26c-0.23-0.36-0.4-1.12-0.54-1.51
							C-7.3,6.3-7.2,6.52-7.15,6.63c-0.36-1.04-0.12-0.1-0.43-0.86C-7.6,5.61-7.43,5.92-7.62,5.4c-0.07-0.26-0.6-1.49-0.69-2.25
							c0.01,0.17,0.02,0.33-0.08-0.03C-8.52,2.55-8.57,1.55-8.7,1.03c0-0.07,0-0.1,0.01-0.11c-0.04-0.44-0.1-1.45-0.16-1.72
							c0.13-0.41,0.06-2.79,0.27-2.76c0.07-0.45,0.13-0.91,0.22-1.36l0.01,0.04c0.23-0.85,0.28-1.16,0.32-1.47
							C-7.97-6.54-8-6.39-7.99-6.37c0.2-0.61,0.35-0.93,0.45-1.24c0.12-0.31,0.17-0.61,0.38-1.11l0.09-0.08
							c0.05-0.14,0.27-0.55,0.54-1.07c0.3-0.5,0.69-1.09,0.99-1.65c0,0.01-0.01,0.04-0.05,0.13c0.39-0.59,0.91-1.27,1.41-1.8
							c0.51-0.53,0.92-1,1.05-1.23l0.66-0.66c-0.91,0.81,0.08-0.18-0.31,0.13c0.35-0.33,0.96-0.79,0.52-0.39l-0.07,0.06
							c-0.04,0.11,0.23-0.15,0.55-0.39c0.32-0.24,0.66-0.49,0.67-0.45c1.92-1.43,4.07-2.38,6.22-2.97l-0.27-0.01l0.76-0.19
							c0.2-0.03,0.28-0.01-0.26,0.12c0.29-0.03,0.89-0.26,0.91-0.28c1.07-0.19-0.4,0.16-0.07,0.11c0.15-0.04,0.29-0.08,0.44-0.1
							l-0.1,0.01c0.36-0.08,0.38-0.12,1.05-0.21c0.42-0.05,0.22,0.01,0.39-0.01c0,0.01,0.06,0,0.25-0.03
							c0.32-0.05,0.65-0.03,0.98-0.05l-0.4-0.04c0.43-0.05,0.92-0.04,0.47-0.08c0.67-0.03,3.67,0.14,4.06,0.3
							c0.61,0.03,1.2,0.19,1.92,0.39c-0.18-0.06-0.27-0.15,0.36,0.02c-0.26,0.03,1.11,0.42,1.55,0.71c-0.21-0.1,0.23,0.03,0.62,0.2
							c0.38,0.18,0.74,0.34,0.43,0.14c0.48,0.24,0.01,0.06,0.36,0.27c1.19,0.49,2.42,1.43,3.67,2.38c0.03,0-0.16-0.19,0.12,0.01
							l0.56,0.63c0.24,0.2,0.28,0.12,0.66,0.55c-0.05-0.06-0.12-0.16,0.04-0.02c2.1,2.25,3.97,5.01,4.69,8.09
							c-0.07-0.42,0-0.15,0.08,0.17c-0.04-0.21,0.04-0.01,0.06-0.05l0.26,1.29C28.83-4.61,28.9-3.43,29-3.31l-0.07-0.41
							c0.15,0.54,0.05-0.8,0.16-0.74C29-4.76,28.9-5.16,28.83-5.62c-0.09-0.46-0.18-0.97-0.43-1.43c-0.06-0.22,0.1,0.17,0.07,0.05
							c-0.13-0.23-0.24-0.53-0.43-1.09l0.03,0.06c-0.3-0.77-0.59-1.28-0.83-1.85c-0.28-0.55-0.6-1.1-1.09-1.89l0.04,0.14
							c-0.23-0.32-0.27-0.4-0.37-0.56c-0.33-0.33,0.66,0.9,0.35,0.61c-0.11-0.24-0.53-0.8-0.94-1.35c-0.42-0.54-0.88-1.01-0.96-1.18
							c-0.41-0.46,0.08,0.17-0.33-0.28l-0.09-0.14l-0.14-0.08c-0.29-0.27-0.42-0.44-0.41-0.47c0.07,0.06,0.21,0.18,0.29,0.25
							c-0.37-0.37-1.09-1-1.23-1.1c0.16,0.12,0.29,0.26,0.44,0.4c-1.29-1.06-2.97-2.27-4.49-2.85l0.1,0.07
							c-1.12-0.51-0.9-0.41-2.16-0.89l0.05,0.01c-0.26-0.09-0.61-0.16-0.97-0.26c0.34,0.06-0.61-0.21-0.17-0.13
							c-1.31-0.29-0.64-0.17-1.53-0.23l-0.19-0.07c-0.3-0.01-0.33,0-1-0.1c0.55,0.05-0.42-0.12,0.2-0.07
							c-0.7-0.16-1.23-0.11-1.66-0.14c-0.43-0.01-0.76-0.02-1.09-0.05c-0.32,0.07-0.02,0.07,0.32,0.06c0.34,0,0.72,0.03,0.54,0.03
							c0.3,0.05-0.54,0.03-0.98,0.07c-0.45,0.04-0.78-0.15-1.91,0c0.11-0.02,0.13-0.02,0.23-0.04c-0.43,0.04-0.82,0.16-1.35,0.19
							c-0.28,0.09-0.67,0.12-0.73,0.22c0.33-0.1,0.68-0.15,1.02-0.21c-0.59,0.08-1.1,0.33-2.05,0.52c0.07-0.03,0.34-0.12,0.54-0.18
							c-0.28,0.05-0.53,0.15-0.82,0.2c0.06-0.09,1.22-0.34,1.84-0.53c-0.31,0.01-1.16,0.34-0.87,0.17c-0.42,0.23-1.11,0.22-1.8,0.6
							l0.03-0.06c-0.11,0.05-0.34,0.16-0.56,0.23l0.36-0.2C3.12-18.89,2.53-18.79,2-18.48c1.14-0.54,0.28-0.08,0.78-0.26
							c-0.69,0.35-0.9,0.43-1.14,0.5c-0.23,0.09-0.52,0.12-1.25,0.6c0.2-0.13,0.77-0.43,0.47-0.22c-0.29,0.16-0.67,0.37-0.86,0.46
							c-0.98,0.61,0.18-0.05-0.23,0.23c-0.37,0.15-0.47,0.32-0.86,0.64l-0.03-0.04c-1.06,0.77-0.23,0.27-1.17,0.98
							c0.11-0.13,0.22-0.26,0.34-0.37c-0.17,0.12-0.31,0.27-0.46,0.41l0.06-0.13c-0.47,0.48-0.63,0.61-1.13,1.04
							c0.13-0.08-0.01,0.12-0.39,0.55c-0.29,0.27,0.12-0.2-0.43,0.42c0.1-0.16,0.21-0.33,0.49-0.57c0.01-0.04,0.1-0.16,0.12-0.2
							c-0.31,0.29-0.73,0.79-0.93,1.01c0.08-0.08,0.16-0.17,0.23-0.23c-0.26,0.3-0.49,0.63-0.71,0.96
							c-0.13,0.14-0.05,0.01,0.03-0.12c-0.13,0.19-0.25,0.36-0.43,0.63c0.02-0.1-0.02-0.1,0.27-0.52l-0.65,0.94
							c-0.05,0.05-0.34,0.47-0.28,0.34c-0.35,0.53-0.76,1.35-1.13,2.11c-0.01,0.04-0.04,0.12-0.12,0.29
							c-0.38,0.69-0.6,1.36-0.9,2.25C-8.4-6.62-8.46-6.45-8.53-6.28C-8.7-5.57-8.26-6.95-8.54-5.77c-0.2,0.84-0.14,0.3-0.24,0.58
							c-0.09,0.42-0.1,1.18-0.29,1.95C-9.04-3.5-9-3.7-8.96-3.94z M-8.29,4.96c-0.07-0.16-0.19-0.49-0.2-0.62
							C-8.38,4.51-8.37,4.67-8.29,4.96z M-7.01,16.48c0.02-0.13,0.08-0.32,0.17-0.53C-6.89,16.11-6.94,16.26-7.01,16.48z
							 M13.77,18.15l0.01,0.03c0.03,0.23,0.02,0.26,0.02,0.25C13.8,18.4,13.79,18.35,13.77,18.15z M14.41,17.54
							c0.08-0.03,0.07-0.03,0.03-0.03c-0.03,0.01-0.08,0.03-0.15,0.05c-0.12,0.03-0.25,0.06-0.41,0.1c0.05-0.01,0.11-0.02,0.21-0.04
							c0.05-0.01,0.1-0.03,0.17-0.04C14.3,17.57,14.35,17.56,14.41,17.54z M8.04-19.69l-0.15,0.01C8.23-19.75,8.13-19.72,8.04-19.69
							z"/>
						<path class="st2" d="M9.55,28.35c-0.14,0.1-0.23,0.13-0.28,0.16C9.26,28.51,9.34,28.49,9.55,28.35z"/>
						<path class="st2" d="M18.31,16.09l-0.45,0.22c0.22-0.1,0.3-0.13,0.42-0.18C18.26,16.13,18.17,16.15,18.31,16.09z"/>
						<path class="st2" d="M22.19,13.99c0.07-0.06,0.11-0.1,0.17-0.16l-0.03,0C22.09,14.04,21.93,14.2,22.19,13.99z"/>
						<path class="st2" d="M18.81,16.03c0.06,0.03,0.33-0.15,0.63-0.33l-0.05,0.03C19.45,15.63,19.14,15.85,18.81,16.03z"/>
						<path class="st2" d="M19.51,15.66l0.28-0.17C19.82,15.45,19.68,15.56,19.51,15.66z"/>
						<path class="st2" d="M15.37,17.27c0.17-0.03,0.09-0.08,0.18-0.08C15.72,17.09,14.49,17.52,15.37,17.27z"/>
						<path class="st2" d="M19.13,16.02l-0.13,0.02c-0.05,0.05-0.11,0.08-0.16,0.12C18.93,16.12,19.03,16.07,19.13,16.02z"/>
						<path class="st2" d="M16.52,17.11l0.54-0.18c-0.01,0,0.06-0.03,0.14-0.07C16.87,16.98,16.5,17.1,16.52,17.11z"/>
						<path class="st2" d="M17.2,16.86c0.18-0.05,0.33-0.14,0.42-0.19C17.53,16.72,17.34,16.81,17.2,16.86z"/>
						<polygon class="st2" points="18.43,16.37 18.27,16.43 17.9,16.6 						"/>
						<path class="st2" d="M13.85,21.33c-0.02,0.21-0.07,0.41-0.12,0.61c0,0.07,0.05-0.1,0.11-0.32
							C13.85,21.46,13.88,21.23,13.85,21.33z"/>
						<path class="st2" d="M14.17,19.46c-0.02,0.17-0.03,0.18-0.05,0.28l0.06,0.02L14.17,19.46z"/>
						<path class="st2" d="M14.01,21.29c0.02,0.07-0.13,0.91,0.03,0.12C14.03,21.34,14.11,20.72,14.01,21.29z"/>
						<polygon class="st2" points="8.63,28.71 8.77,28.63 8.7,28.56 						"/>
						<path class="st2" d="M0.52,29.94c0.73,0.21,0.18,0.01,0.85,0.17c0.18,0.02-0.54-0.13-0.36-0.12
							C0.56,29.9,0.33,29.82,0.52,29.94z"/>
						<path class="st2" d="M1.01,29.99c0.07,0.01,0.15,0.03,0.23,0.04C1.1,30.01,1.04,29.99,1.01,29.99z"/>
					</g>
				</g>
			</g>
		</g>
	</g>
</g>
</svg>
